{
    "asset" : {
        "generator" : "Khronos glTF Blender I/O v1.8.19",
        "version" : "2.0"
    },
    "scene" : 0,
    "scenes" : [
        {
            "name" : "Scene",
            "nodes" : [
                0
            ]
        }
    ],
    "nodes" : [
        {
            "mesh" : 0,
            "name" : "Head_Texture_0"
        }
    ],
    "materials" : [
        {
            "doubleSided" : true,
            "name" : "Texture",
            "pbrMetallicRoughness" : {
                "baseColorTexture" : {
                    "index" : 0
                },
                "metallicFactor" : 0,
                "roughnessFactor" : 0.8211145401000977
            }
        }
    ],
    "meshes" : [
        {
            "name" : "Head_Texture_0",
            "primitives" : [
                {
                    "attributes" : {
                        "POSITION" : 0,
                        "NORMAL" : 1,
                        "TEXCOORD_0" : 2
                    },
                    "indices" : 3,
                    "material" : 0
                }
            ]
        }
    ],
    "textures" : [
        {
            "sampler" : 0,
            "source" : 0
        }
    ],
    "images" : [
        {
            "bufferView" : 4,
            "mimeType" : "image/jpeg",
            "name" : "Image_0"
        }
    ],
    "accessors" : [
        {
            "bufferView" : 0,
            "componentType" : 5126,
            "count" : 1443,
            "max" : [
                0.4561331272125244,
                0.63896244764328,
                0.45381587743759155
            ],
            "min" : [
                -0.4561331272125244,
                -0.4382346272468567,
                -0.45381587743759155
            ],
            "type" : "VEC3"
        },
        {
            "bufferView" : 1,
            "componentType" : 5126,
            "count" : 1443,
            "type" : "VEC3"
        },
        {
            "bufferView" : 2,
            "componentType" : 5126,
            "count" : 1443,
            "type" : "VEC2"
        },
        {
            "bufferView" : 3,
            "componentType" : 5123,
            "count" : 1482,
            "type" : "SCALAR"
        }
    ],
    "bufferViews" : [
        {
            "buffer" : 0,
            "byteLength" : 17316,
            "byteOffset" : 0
        },
        {
            "buffer" : 0,
            "byteLength" : 17316,
            "byteOffset" : 17316
        },
        {
            "buffer" : 0,
            "byteLength" : 11544,
            "byteOffset" : 34632
        },
        {
            "buffer" : 0,
            "byteLength" : 2964,
            "byteOffset" : 46176
        },
        {
            "buffer" : 0,
            "byteLength" : 227809,
            "byteOffset" : 49140
        }
    ],
    "samplers" : [
        {
            "magFilter" : 9729,
            "minFilter" : 9987
        }
    ],
    "buffers" : [
        {
            "byteLength" : 276952,
            "uri" : "data:application/octet-stream;base64,"
        }
    ]
}
