{
    "asset" : {
        "generator" : "Khronos glTF Blender I/O v1.8.19",
        "version" : "2.0"
    },
    "scene" : 0,
    "scenes" : [
        {
            "name" : "Scene",
            "nodes" : [
                0
            ]
        }
    ],
    "nodes" : [
        {
            "mesh" : 0,
            "name" : "uploads_files_2289753_Blocks",
            "rotation" : [
                0.7071068286895752,
                0,
                0,
                0.7071068286895752
            ]
        }
    ],
    "materials" : [
        {
            "doubleSided" : true,
            "name" : "Breaking_blocks:aiStandardSurface3SG",
            "pbrMetallicRoughness" : {
                "baseColorFactor" : [
                    1,
                    0.05000000074505806,
                    0,
                    1
                ],
                "metallicFactor" : 0,
                "roughnessFactor" : 0.5
            }
        },
        {
            "doubleSided" : true,
            "emissiveFactor" : [
                0.24862748384475708,
                0.22150449454784393,
                0.2395864874124527
            ],
            "name" : "Breaking_blocks:aiStandardSurface1SG",
            "pbrMetallicRoughness" : {
                "baseColorFactor" : [
                    0.800000011920929,
                    0.800000011920929,
                    0.800000011920929,
                    1
                ],
                "metallicFactor" : 0,
                "roughnessFactor" : 0.5
            }
        }
    ],
    "meshes" : [
        {
            "name" : "uploads_files_2289753_Blocks",
            "primitives" : [
                {
                    "attributes" : {
                        "POSITION" : 0,
                        "NORMAL" : 1,
                        "TEXCOORD_0" : 2
                    },
                    "indices" : 3,
                    "material" : 0
                },
                {
                    "attributes" : {
                        "POSITION" : 4,
                        "NORMAL" : 5,
                        "TEXCOORD_0" : 6
                    },
                    "indices" : 7,
                    "material" : 1
                }
            ]
        }
    ],
    "accessors" : [
        {
            "bufferView" : 0,
            "componentType" : 5126,
            "count" : 1920,
            "max" : [
                0.5349100232124329,
                0.5869050025939941,
                -0.1633020043373108
            ],
            "min" : [
                -0.5102819800376892,
                -0.6481530070304871,
                -1.2241499423980713
            ],
            "type" : "VEC3"
        },
        {
            "bufferView" : 1,
            "componentType" : 5126,
            "count" : 1920,
            "type" : "VEC3"
        },
        {
            "bufferView" : 2,
            "componentType" : 5126,
            "count" : 1920,
            "type" : "VEC2"
        },
        {
            "bufferView" : 3,
            "componentType" : 5123,
            "count" : 2640,
            "type" : "SCALAR"
        },
        {
            "bufferView" : 4,
            "componentType" : 5126,
            "count" : 24,
            "max" : [
                0.5,
                0.5388010144233704,
                -0.2266719937324524
            ],
            "min" : [
                -0.4618619978427887,
                -0.5826299786567688,
                -1.1696109771728516
            ],
            "type" : "VEC3"
        },
        {
            "bufferView" : 5,
            "componentType" : 5126,
            "count" : 24,
            "type" : "VEC3"
        },
        {
            "bufferView" : 6,
            "componentType" : 5126,
            "count" : 24,
            "type" : "VEC2"
        },
        {
            "bufferView" : 7,
            "componentType" : 5123,
            "count" : 36,
            "type" : "SCALAR"
        }
    ],
    "bufferViews" : [
        {
            "buffer" : 0,
            "byteLength" : 23040,
            "byteOffset" : 0
        },
        {
            "buffer" : 0,
            "byteLength" : 23040,
            "byteOffset" : 23040
        },
        {
            "buffer" : 0,
            "byteLength" : 15360,
            "byteOffset" : 46080
        },
        {
            "buffer" : 0,
            "byteLength" : 5280,
            "byteOffset" : 61440
        },
        {
            "buffer" : 0,
            "byteLength" : 288,
            "byteOffset" : 66720
        },
        {
            "buffer" : 0,
            "byteLength" : 288,
            "byteOffset" : 67008
        },
        {
            "buffer" : 0,
            "byteLength" : 192,
            "byteOffset" : 67296
        },
        {
            "buffer" : 0,
            "byteLength" : 72,
            "byteOffset" : 67488
        }
    ],
    "buffers" : [
        {
            "byteLength" : 67560,
            "uri" : "data:application/octet-stream;base64,"
        }
    ]
}
